<svg id="Camada_1" data-name="Camada 1" xmlns="http://www.w3.org/2000/svg" viewBox="0 0 160.02 100"><title>be</title><path d="M16,88.86V9.57h1.15q18.29,0,36.59,0a34.45,34.45,0,0,1,11.81,1.82c6.53,2.37,10.91,6.73,12.33,13.67,1.07,5.21.88,10.33-1.9,15.08a15.18,15.18,0,0,1-5.74,5.36l-1.36.78c1.3,0.68,2.51,1.25,3.66,1.92A16,16,0,0,1,80.2,58.61c2.1,8.86.25,16.8-6.22,23.42a20.84,20.84,0,0,1-12.46,6,82.29,82.29,0,0,1-10.19.8c-11.39.1-22.79,0-34.18,0C16.8,88.91,16.46,88.88,16,88.86ZM34.37,54V75a1.18,1.18,0,0,0,.27.09c6.13,0,12.27.09,18.39-.11a16.89,16.89,0,0,0,6.24-1.46c3.37-1.52,4.67-4.62,5-8.14a10.63,10.63,0,0,0-1.36-7c-1.85-2.81-4.72-3.9-7.86-4.1C50.78,54,46.53,54.06,42.28,54,39.67,54,37.06,54,34.37,54Zm0-13.23c0.32,0,.59.07,0.86,0.07,5.23,0,10.45,0,15.68,0a28.49,28.49,0,0,0,4.26-.38,10.17,10.17,0,0,0,5.13-2.18c2.1-1.8,2.43-4.29,2.37-6.86-0.06-2.92-1.06-5.35-3.88-6.62a12.81,12.81,0,0,0-3.41-.92c-6.93-1-13.91-.38-20.86-0.49a0.54,0.54,0,0,0-.14.12V40.77Z"/><path d="M143.49,62.2H102.33a1,1,0,0,0-.15.32c0.26,7.81,4.52,13,12.44,13.72,3.34,0.29,6.6-.06,9.33-2.18a29.71,29.71,0,0,0,3.13-3.44,2,2,0,0,1,1.11-.73c4.67,0,9.34,0,14,0a2.51,2.51,0,0,1,.45.09,11.21,11.21,0,0,1-1.8,5.28,25,25,0,0,1-16.67,12.23c-9,2-17.63,1-25.6-4.08A22.53,22.53,0,0,1,88.33,68.85a43.15,43.15,0,0,1,.42-21.91c2.69-9.25,8.79-15.27,18-17.73A31.42,31.42,0,0,1,131,32a23.75,23.75,0,0,1,9.35,10.29c2.27,4.4,3,9.17,3.17,14C143.55,58.24,143.49,60.15,143.49,62.2ZM128,52.36c-0.35-7.83-5.72-12-12.84-12-8.65,0-12,6.48-12.48,12H128Z"/><path d="M99.25,20.73V12.93h31.83v7.79H99.25Z"/></svg>