<svg id="Camada_1" data-name="Camada 1" xmlns="http://www.w3.org/2000/svg" viewBox="0 0 82.44 98.08"><defs><style>.cls-1{fill:#7ff7c1;}</style></defs><title>et</title><path class="cls-1" d="M50,1A41.22,41.22,0,0,0,8.78,42.18C8.78,64.95,37.28,99,50,99c13.35,0,41.22-34.09,41.22-56.86A41.22,41.22,0,0,0,50,1Zm-6.54,57.8c-2,5.49-9,8-15.5,5.57S17.77,55.51,19.8,50s9-8,15.5-5.57S45.49,53.27,43.46,58.76ZM72,64.33c-6.54,2.41-13.48-.08-15.5-5.57s1.63-11.9,8.16-14.31S78.18,44.53,80.2,50,78.58,61.92,72,64.33Z" transform="translate(-8.78 -0.96)"/></svg>