<svg id="Camada_1" data-name="Camada 1" xmlns="http://www.w3.org/2000/svg" viewBox="0 0 100 100"><title>insta</title><path d="M1.52,69.39V30.61C1.67,29.5,1.9,28.4,2,27.29c0.74-12.51,8.68-22,20.81-24.6C25.35,2.13,28,1.9,30.61,1.52H69.39c1.1,0.15,2.2.39,3.31,0.45C85,2.7,94.26,10.29,97.14,22.34c0.68,2.86.91,5.83,1.34,8.75V68.42c-0.16,1.43-.4,2.85-0.48,4.28C97.29,85,89.68,94.27,77.69,97.12c-3,.72-6.17.92-9.26,1.37H31.09c-1.27-.16-2.53-0.41-3.8-0.48C14.73,97.28,5.15,89.18,2.63,77,2.11,74.49,1.88,71.93,1.52,69.39Zm48.2,19.92v0c7.19,0,14.38.16,21.56-.05,5.32-.16,10.15-1.85,13.75-6.1A18.49,18.49,0,0,0,89.26,71c0.13-13.89.27-27.78,0-41.67C89,17.73,82.35,11.07,70.73,10.72,58.86,10.36,47,10.34,35.11,10.36a53.94,53.94,0,0,0-10.83,1c-8.18,1.7-13.34,8.06-13.51,17.21-0.27,14.13-.31,28.27,0,42.39,0.24,11.3,7.06,17.91,18.37,18.3C36,89.51,42.85,89.31,49.72,89.31Z"/><path d="M25.12,49.87a24.86,24.86,0,1,1,24.81,25A24.71,24.71,0,0,1,25.12,49.87ZM49.91,66.06a16.07,16.07,0,1,0-16-16.22A15.94,15.94,0,0,0,49.91,66.06Z"/><path d="M81.64,24a5.83,5.83,0,0,1-5.7,6,6,6,0,0,1-6-5.77,5.83,5.83,0,0,1,5.78-5.87A5.62,5.62,0,0,1,81.64,24Z"/></svg>