<?xml version="1.0" encoding="utf-8"?>
<!-- Generator: Adobe Illustrator 19.2.0, SVG Export Plug-In . SVG Version: 6.00 Build 0)  -->
<svg version="1.1" id="Camada_1" xmlns="http://www.w3.org/2000/svg" xmlns:xlink="http://www.w3.org/1999/xlink" x="0px" y="0px"
	 viewBox="0 0 100 100" style="enable-background:new 0 0 100 100;" xml:space="preserve">
<title>logo_1</title>
<g>
	<path d="M37.6,45.3c-5.5-2-11.3,0-13,4.7c-1.7,4.6,1.4,10,6.9,12c5.5,2,11.3-0.1,13-4.7v0C46.2,52.8,43.1,47.3,37.6,45.3z"/>
	<path d="M62.4,45.4c-5.5,2-8.5,7.4-6.9,12S63,64,68.5,62l0,0c5.5-2,8.6-7.5,6.9-12C73.7,45.4,67.9,43.4,62.4,45.4z"/>
	<path d="M50,0.5C22.7,0.5,0.5,22.7,0.5,50S22.7,99.5,50,99.5S99.5,77.3,99.5,50S77.3,0.5,50,0.5z M50,91.2
		c-10.7,0-34.7-28.7-34.7-47.8c0,0,0,0,0,0C15.3,24.3,30.9,8.8,50,8.8c0,0,0,0,0,0c19.1,0,34.7,15.5,34.7,34.7
		C84.7,62.6,61.2,91.2,50,91.2z"/>
</g>
</svg>
