<svg id="Camada_1" data-name="Camada 1" xmlns="http://www.w3.org/2000/svg" viewBox="0 0 100 100"><defs><style>.cls-1{fill:#7ff7c1;}</style></defs><title>logo_2</title><circle cx="50" cy="50" r="49.52"/><path class="cls-1" d="M50,8.76A34.66,34.66,0,0,0,15.34,43.43c0,19.14,24,47.81,34.66,47.81,11.23,0,34.66-28.67,34.66-47.81A34.66,34.66,0,0,0,50,8.76Zm-5.5,48.6c-1.7,4.62-7.54,6.71-13,4.68S22.9,54.64,24.6,50s7.54-6.71,13-4.68S46.21,52.75,44.5,57.37Zm24,4.68c-5.5,2-11.33-.07-13-4.68s1.37-10,6.86-12S73.69,45.4,75.4,50,74,60,68.53,62.05Z"/></svg>