<svg id="Camada_1" data-name="Camada 1" xmlns="http://www.w3.org/2000/svg" viewBox="0 0 132.76 100"><title>mail</title><path d="M2.35,84.28V16.11c0.11-.39.24-0.77,0.33-1.16a15.89,15.89,0,0,1,4.88-8.7A16.4,16.4,0,0,1,19.1,2Q66,2,112.81,2c1,0,2,0,3,0,5.94,0.48,10.44,3.28,13.2,8.58a38.73,38.73,0,0,1,1.91,5.47V84.28c-0.11.39-.24,0.77-0.32,1.16a15.9,15.9,0,0,1-4.89,8.7,16.4,16.4,0,0,1-11.55,4.24q-47.57,0-95.14,0c-0.55,0-1.1,0-1.64-.05-5.85-.52-10.31-3.27-13.05-8.48A39,39,0,0,1,2.35,84.28ZM16,90a31.51,31.51,0,0,0,3.38.39q24.13,0,48.25,0,23.15,0,46.3,0a29.19,29.19,0,0,0,3.27-.4L82.32,50.13c-0.27.19-.44,0.3-0.6,0.43L69.43,61.1a4.16,4.16,0,0,1-5.53.06c-2.86-2.43-5.71-4.89-8.56-7.34L51,50.1ZM66.62,53l49.55-42.48-0.09-.28A20.68,20.68,0,0,0,114,10c-3.22,0-6.43,0-9.65,0H19.45a22.52,22.52,0,0,0-2.33.24l0,0.29Zm21.75-8.09,34,38.89,0.29-.09c0.07-.69.19-1.39,0.19-2.08q0-31.36,0-62.73a15.58,15.58,0,0,0-.2-2.14,4.71,4.71,0,0,0-.37-0.93Zm-77.28-29-0.37,0a20.4,20.4,0,0,0-.34,2.66q0,31.62,0,63.23A20.23,20.23,0,0,0,10.63,84L44.87,44.86Z"/></svg>